<svg width="46" height="45" viewBox="0 0 46 45" fill="none" xmlns="http://www.w3.org/2000/svg">
<path d="M8.50488 10.0273C8.50488 8.23571 9.04625 6.48433 10.0605 4.99465C11.0748 3.50498 12.5164 2.34392 14.2031 1.6583C15.8898 0.972675 17.7457 0.793285 19.5363 1.14281C21.3268 1.49234 22.9716 2.35508 24.2625 3.62195C25.5534 4.88881 26.4325 6.50289 26.7887 8.26009C27.1449 10.0173 26.9621 11.8387 26.2634 13.4939C25.5648 15.1491 24.3817 16.5639 22.8637 17.5593C21.3458 18.5546 19.5611 19.0859 17.7355 19.0859C15.2874 19.0859 12.9395 18.1315 11.2085 16.4327C9.47739 14.7339 8.50488 12.4298 8.50488 10.0273ZM24.8684 37.9277C24.2571 37.3682 23.8215 36.6488 23.613 35.8543C23.4044 35.0599 23.4317 34.2235 23.6915 33.4437C23.9441 32.6532 24.4214 31.9499 25.0673 31.4163C25.7132 30.8828 26.5008 30.5412 27.3376 30.4318L30.2222 30.0241C30.2222 30.0241 30.6837 29.9811 30.8221 29.7071L31.7452 27.8954C31.8191 27.7642 31.8513 27.6143 31.8375 27.4651C31.8088 27.3374 31.7449 27.2199 31.6529 27.1254C30.4394 25.9278 28.9812 24.9958 27.3744 24.3908C25.7675 23.7858 24.0484 23.5215 22.33 23.6152H13.0994C3.73036 23.6152 0.407349 30.3412 0.407349 36.116C0.407349 41.2794 3.1996 43.997 8.48412 43.997H25.9992C26.3684 43.997 26.6038 43.7252 26.7145 43.1364L27.1761 40.5321C27.2008 40.4212 27.1946 40.3059 27.158 40.1983C27.1214 40.0906 27.0559 39.9947 26.9684 39.9206L24.8684 37.9277ZM45.0996 35.4796C45.2361 35.3507 45.3326 35.1866 45.378 35.0061C45.4235 34.8256 45.416 34.6362 45.3563 34.4598C45.2967 34.2833 45.1875 34.127 45.0412 34.009C44.8949 33.8909 44.7175 33.8158 44.5296 33.7925L39.9327 33.1516C39.7689 33.1293 39.6131 33.0684 39.4785 32.9742C39.3438 32.8799 39.2345 32.7551 39.1597 32.6103L37.1659 28.7333C37.0725 28.5555 36.931 28.4065 36.757 28.3024C36.583 28.1983 36.3831 28.1433 36.1794 28.1433C35.9756 28.1433 35.7757 28.1983 35.6017 28.3024C35.4277 28.4065 35.2862 28.5555 35.1928 28.7333L33.2013 32.6103C33.1264 32.755 33.017 32.8797 32.8824 32.9739C32.7478 33.0682 32.592 33.1291 32.4283 33.1516L27.8314 33.7925C27.643 33.815 27.465 33.8896 27.3181 34.0075C27.1712 34.1255 27.0615 34.282 27.0018 34.4588C26.942 34.6357 26.9347 34.8255 26.9807 35.0062C27.0267 35.1869 27.124 35.3511 27.2614 35.4796L30.5845 38.5913C30.7042 38.7022 30.794 38.8405 30.8459 38.9939C30.8979 39.1472 30.9103 39.3107 30.8821 39.4699L30.1229 43.7252C30.0909 43.9225 30.1155 44.1246 30.1941 44.3088C30.2727 44.4931 30.4021 44.6522 30.5678 44.7682C30.7335 44.8842 30.9289 44.9525 31.132 44.9655C31.3351 44.9785 31.5379 44.9356 31.7175 44.8417L35.7028 42.8307C35.8505 42.7558 36.0143 42.7167 36.1805 42.7167C36.3467 42.7167 36.5105 42.7558 36.6582 42.8307L40.6458 44.8439C40.8254 44.9373 41.0279 44.9797 41.2306 44.9664C41.4333 44.9531 41.6283 44.8846 41.7936 44.7687C41.9589 44.6528 42.0881 44.494 42.1666 44.3101C42.2451 44.1262 42.2699 43.9244 42.2381 43.7275L41.4835 39.4677C41.4554 39.3087 41.4677 39.1453 41.5192 38.9921C41.5707 38.8388 41.6599 38.7004 41.7789 38.589L45.0996 35.4796Z" fill="#EB5130"/>
</svg>
