<svg width="41" height="41" viewBox="0 0 41 41" fill="none" xmlns="http://www.w3.org/2000/svg">
<path d="M27.1073 2.21875H12.1073C8.65608 2.21875 5.85733 5.0175 5.85733 8.46875V29.7188C5.85733 33.17 8.65608 35.9688 12.1073 35.9688H25.8573V32.08C24.3136 30.5012 23.3573 28.345 23.3573 25.9688C23.3573 21.1437 27.2836 17.2188 32.1073 17.2188C32.5323 17.2188 32.9473 17.26 33.3573 17.3188V8.46875C33.3573 5.0175 30.5586 2.21875 27.1073 2.21875ZM18.5823 29.7188H12.1073C11.4161 29.7188 10.8573 29.1588 10.8573 28.4688C10.8573 27.7787 11.4161 27.2188 12.1073 27.2188H18.5823C19.2736 27.2188 19.8323 27.7787 19.8323 28.4688C19.8323 29.1588 19.2736 29.7188 18.5823 29.7188ZM18.8823 23.4688H12.1073C11.4161 23.4688 10.8573 22.9088 10.8573 22.2188C10.8573 21.5287 11.4161 20.9688 12.1073 20.9688H18.8823C19.5736 20.9688 20.1323 21.5287 20.1323 22.2188C20.1323 22.9088 19.5736 23.4688 18.8823 23.4688ZM22.6698 17.2188H12.1073C11.4161 17.2188 10.8573 16.6587 10.8573 15.9688C10.8573 15.2788 11.4161 14.7188 12.1073 14.7188H22.6698C23.3611 14.7188 23.9198 15.2788 23.9198 15.9688C23.9198 16.6587 23.3611 17.2188 22.6698 17.2188ZM27.1073 10.9688H12.1073C11.4161 10.9688 10.8573 10.4087 10.8573 9.71875C10.8573 9.02875 11.4161 8.46875 12.1073 8.46875H27.1073C27.7986 8.46875 28.3573 9.02875 28.3573 9.71875C28.3573 10.4087 27.7986 10.9688 27.1073 10.9688Z" fill="#EB5130"/>
<path d="M32.1073 34.719C30.7636 34.719 29.4948 34.4065 28.3573 33.8652V38.4665C28.3573 39.4652 29.4698 40.0602 30.3011 39.5065L32.1073 38.3015L33.9136 39.5065C34.7448 40.0602 35.8573 39.4652 35.8573 38.4665V33.8652C34.7198 34.4065 33.4511 34.719 32.1073 34.719Z" fill="#EB5130"/>
<path d="M32.1073 32.2188C35.5591 32.2188 38.3573 29.4205 38.3573 25.9688C38.3573 22.517 35.5591 19.7188 32.1073 19.7188C28.6556 19.7188 25.8573 22.517 25.8573 25.9688C25.8573 29.4205 28.6556 32.2188 32.1073 32.2188Z" fill="#EB5130"/>
</svg>
