<svg width="51" height="41" viewBox="0 0 51 41" fill="none" xmlns="http://www.w3.org/2000/svg">
<path fill-rule="evenodd" clip-rule="evenodd" d="M30.2347 30.1108L32.3535 34.9767C32.4211 35.132 32.3955 35.3115 32.2869 35.4425C32.1784 35.5735 32.0049 35.6343 31.8366 35.6004L27.2249 34.6723L24.7464 38.5975C24.6554 38.7417 24.4903 38.8239 24.3183 38.8107C24.1463 38.7975 23.9962 38.691 23.929 38.5347L21.5006 32.8821L21.6887 32.4014C22.8121 32.0803 23.8967 31.6391 24.9208 31.0843L26.9912 31.9865C27.5495 32.2298 28.2024 32.1101 28.6342 31.6854L30.2347 30.1108ZM13.3467 34.0392L10.3793 40.2488C10.3063 40.4016 10.1531 40.502 9.98155 40.5093C9.81009 40.5167 9.6486 40.4298 9.56237 40.2838L7.19647 36.2785L2.5609 37.0773C2.39156 37.1065 2.21974 37.0407 2.11503 36.9066C2.01033 36.7724 1.99011 36.5922 2.0625 36.4388L4.76484 30.7104L5.75583 31.6854C6.18766 32.1101 6.84054 32.2298 7.39877 31.9865L9.4717 31.0833C10.4975 31.6366 11.5807 32.0798 12.7061 32.4016C12.7061 32.4016 13.1082 33.4295 13.3467 34.0392ZM20.5811 3.28489C22.0819 3.63577 23.5132 4.21908 24.8288 5.01647L27.5896 3.80898L30.8413 7.00782L29.6184 9.72373C30.429 11.0179 31.022 12.4259 31.3786 13.9069L34.195 14.9732V19.4981L31.3786 20.5644C31.022 22.0408 30.4244 23.4488 29.6184 24.743L30.8413 27.4589L27.5896 30.6577L24.8288 29.4548C23.5178 30.2522 22.0819 30.8355 20.5811 31.1864L19.4972 33.957H14.8974L13.8136 31.1864C12.3081 30.8355 10.8768 30.2476 9.56126 29.4548L6.80047 30.6577L3.54875 27.4589L4.7762 24.743C3.96562 23.4534 3.37267 22.0408 3.01138 20.5644L0.195007 19.4981V14.9732L3.01138 13.9069C3.37267 12.4259 3.96562 11.0179 4.7762 9.72373L3.54875 7.00782L6.80047 3.80898L9.56126 5.01647C10.8768 4.21908 12.3081 3.63577 13.8089 3.28489L14.8974 0.509766H19.4972L20.5811 3.28489ZM17.195 7.81258C11.9096 7.81258 7.61852 12.0339 7.61852 17.2334C7.61852 22.4328 11.9096 26.6541 17.195 26.6541C22.4804 26.6541 26.7715 22.4328 26.7715 17.2334C26.7715 12.0339 22.4804 7.81258 17.195 7.81258ZM17.4823 11.3454L18.9605 15.1707C19.0052 15.2869 19.1074 15.3592 19.2318 15.3654L23.3885 15.5665C23.6727 15.579 23.7875 15.9308 23.5672 16.1034L20.3236 18.6694C20.2247 18.7448 20.1864 18.864 20.2183 18.9834L21.3102 22.9343C21.3867 23.2012 21.0835 23.418 20.8473 23.2672L17.3643 21.0248C17.2589 20.9558 17.1311 20.9558 17.0258 21.0248L13.546 23.2672C13.3097 23.418 13.0064 23.2012 13.0798 22.9343L14.1717 18.9834C14.2036 18.864 14.1653 18.7448 14.0664 18.6694L10.8228 16.1034C10.6025 15.9308 10.7173 15.579 11.0015 15.5665L15.1582 15.3654C15.2826 15.3592 15.3849 15.2869 15.4295 15.1707L16.9077 11.3454C17.0067 11.0848 17.3834 11.0848 17.4823 11.3454Z" fill="#EB5130"/>
</svg>
