<svg width="36" height="35" viewBox="0 0 36 35" fill="none" xmlns="http://www.w3.org/2000/svg">
<path d="M35.5044 17.6637C35.5044 15.852 33.4809 14.3932 32.9515 12.7579C32.3985 11.0755 33.1632 8.69902 32.1397 7.28724C31.1044 5.86376 28.5985 5.86376 27.1867 4.82846C25.775 3.80494 24.9985 1.42844 23.3162 0.875463C21.6809 0.346109 19.6691 1.80492 17.8573 1.80492C16.0574 1.80492 14.0338 0.346109 12.3985 0.875463C10.7161 1.42844 9.9397 3.80494 8.5397 4.82846C7.11615 5.86376 4.61026 5.86376 3.58673 7.28724C2.56321 8.69902 3.31617 11.0637 2.77497 12.7579C2.24554 14.3932 0.21027 15.852 0.21027 17.6637C0.21027 19.4755 2.24554 20.9343 2.77497 22.5696C3.31617 24.2519 2.56321 26.6284 3.58673 28.0402C4.61026 29.452 7.11615 29.4638 8.5397 30.499C9.9397 31.5226 10.7161 33.899 12.3985 34.452C14.0338 34.9814 16.0574 33.5225 17.8573 33.5225C19.6691 33.5225 21.6809 34.9814 23.3162 34.452C24.9985 33.899 25.775 31.5226 27.1867 30.499C28.5985 29.4638 31.1044 29.452 32.1397 28.0402C33.1632 26.6284 32.3985 24.2519 32.9515 22.5696C33.4809 20.9343 35.5044 19.4755 35.5044 17.6637ZM25.8691 15.852L22.3279 19.3108L23.1632 24.1931C23.2574 24.7108 22.7044 25.099 22.2338 24.8637L17.8573 22.5578L13.4809 24.8637C13.0103 25.099 12.4691 24.7108 12.5514 24.1931L13.3868 19.3108L9.84557 15.852C9.46909 15.4873 9.68084 14.8402 10.1985 14.7696L15.0927 14.0637L17.2926 9.61663C17.5162 9.14609 18.1985 9.14609 18.4338 9.61663L20.622 14.0637L25.5162 14.7696C26.0338 14.8402 26.2456 15.4873 25.8691 15.852Z" fill="#EB5130"/>
</svg>
