<svg width="51" height="29" viewBox="0 0 51 29" fill="none" xmlns="http://www.w3.org/2000/svg">
<path d="M37.4187 21.6641H3.23586C2.70872 14.5003 6.26729 7.78726 11.9959 4.38946L13.203 14.9749C13.2901 15.7435 13.9973 16.3035 14.7801 16.2111C15.5659 16.1243 16.1301 15.4327 16.0416 14.6641L14.6216 2.21526C14.5801 1.82326 14.7101 1.42986 14.9773 1.14006C15.2573 0.837663 15.6573 0.664062 16.0801 0.664062H24.5744C24.9959 0.664062 25.3973 0.837663 25.6759 1.14006C25.9444 1.43126 26.0744 1.81766 26.0344 2.19146L24.613 14.6641C24.5244 15.4327 25.0887 16.1243 25.8744 16.2097C26.6516 16.2993 27.3644 15.7463 27.4516 14.9735L28.6587 4.38806C34.3873 7.78726 37.9459 14.5003 37.4187 21.6641Z" fill="#EB5130"/>
<path d="M40.3273 26.5639C40.3273 27.7217 39.3659 28.6639 38.1845 28.6639H2.47019C1.28876 28.6639 0.327332 27.7217 0.327332 26.5639C0.327332 25.4061 1.28876 24.4639 2.47019 24.4639H38.1845C39.3659 24.4639 40.3273 25.4061 40.3273 26.5639Z" fill="#EB5130"/>
</svg>
