<svg width="36" height="36" viewBox="0 0 36 36" fill="none" xmlns="http://www.w3.org/2000/svg">
<path d="M27.1779 0.958984H8.08699C5.97809 0.96151 3.95629 1.80038 2.46507 3.29159C0.973849 4.7828 0.134972 6.80459 0.132446 8.91348V21.6407C0.13476 23.4737 0.768953 25.2499 1.92813 26.6699C3.08732 28.0899 4.7006 29.0668 6.49608 29.4361V34.3679C6.49604 34.6559 6.57419 34.9385 6.72219 35.1856C6.8702 35.4327 7.0825 35.6349 7.33646 35.7708C7.59041 35.9067 7.87649 35.9711 8.16418 35.9571C8.45186 35.9431 8.73035 35.8513 8.96995 35.6915L18.1097 29.5952H27.1779C29.2868 29.5926 31.3086 28.7538 32.7998 27.2625C34.291 25.7713 35.1299 23.7496 35.1324 21.6407V8.91348C35.1299 6.80459 34.291 4.7828 32.7998 3.29159C31.3086 1.80038 29.2868 0.96151 27.1779 0.958984ZM23.9961 20.0498H11.2688C10.8469 20.0498 10.4422 19.8822 10.1439 19.5838C9.84551 19.2855 9.6779 18.8808 9.6779 18.4589C9.6779 18.0369 9.84551 17.6323 10.1439 17.3339C10.4422 17.0356 10.8469 16.868 11.2688 16.868H23.9961C24.418 16.868 24.8227 17.0356 25.121 17.3339C25.4194 17.6323 25.587 18.0369 25.587 18.4589C25.587 18.8808 25.4194 19.2855 25.121 19.5838C24.8227 19.8822 24.418 20.0498 23.9961 20.0498ZM27.1779 13.6862H8.08699C7.66506 13.6862 7.2604 13.5186 6.96205 13.2202C6.6637 12.9219 6.49608 12.5172 6.49608 12.0953C6.49608 11.6733 6.6637 11.2687 6.96205 10.9703C7.2604 10.672 7.66506 10.5044 8.08699 10.5044H27.1779C27.5998 10.5044 28.0045 10.672 28.3028 10.9703C28.6012 11.2687 28.7688 11.6733 28.7688 12.0953C28.7688 12.5172 28.6012 12.9219 28.3028 13.2202C28.0045 13.5186 27.5998 13.6862 27.1779 13.6862Z" fill="#EB5130"/>
</svg>
