<svg width="112" height="40" viewBox="0 0 112 40" fill="none" xmlns="http://www.w3.org/2000/svg">
<path d="M67.5749 9.00905C67.7407 9.17484 67.8214 9.36751 67.8214 9.61395V13.92C67.8214 14.1933 67.7407 14.386 67.5749 14.5249L64.1203 17.8452C63.82 18.1454 63.4616 18.2843 63.0494 18.2843H50.8168V24.6739C50.8168 24.9741 50.6779 25.113 50.3777 25.113H46.0717C45.7983 25.113 45.6594 24.9741 45.6594 24.6739V6.95236C45.6594 6.43259 45.9059 6.15479 46.4256 6.15479H64.1158C64.4429 6.15479 64.7207 6.26232 64.9402 6.48188L67.5749 9.00456V9.00905ZM61.2122 9.2286C61.0733 9.0897 60.912 9.03593 60.7193 9.03593H51.2828C50.9826 9.03593 50.8168 9.20172 50.8168 9.50193V15.4793H60.1682C60.4415 15.4793 60.688 15.3673 60.8807 15.1791L62.4176 13.6959C62.5833 13.5302 62.664 13.3375 62.664 13.091V10.9223C62.664 10.7297 62.5833 10.537 62.4176 10.3757L61.2122 9.22412V9.2286Z" fill="white"/>
<path d="M91.5473 24.3692C91.5473 24.8621 91.3277 25.1085 90.8617 25.1085H88.1463C87.6266 25.1085 87.1874 24.9159 86.8021 24.5305L73.7451 12.2711V24.6694C73.7451 24.9696 73.6062 25.1085 73.3329 25.1085H70.2904C70.0171 25.1085 69.8782 24.9696 69.8782 24.6694V6.89863C69.8782 6.40575 70.0977 6.1593 70.5637 6.1593H73.2791C73.7989 6.1593 74.238 6.35198 74.6233 6.73732L87.5683 19.055V6.6029C87.5683 6.30269 87.7072 6.16378 88.0074 6.16378H91.135C91.4083 6.16378 91.5473 6.30269 91.5473 6.6029V24.3782V24.3692Z" fill="white"/>
<path d="M99.5007 19.8436C99.5007 20.0094 99.5545 20.1438 99.6934 20.2827L101.392 21.8734C101.531 22.0123 101.719 22.0929 101.938 22.0929H111.321C111.594 22.0929 111.733 22.2318 111.733 22.5321V24.6694C111.733 24.9696 111.594 25.1085 111.321 25.1085H98.9227C98.6225 25.1085 98.3447 25.001 98.1565 24.8083L94.5091 21.3805C94.3434 21.2147 94.2627 21.022 94.2627 20.7756V6.5939C94.2627 6.29369 94.4016 6.15479 94.7018 6.15479H99.0616C99.3618 6.15479 99.5007 6.29369 99.5007 6.5939V19.8436Z" fill="white"/>
<path d="M24.8493 10.7502L17.7345 6.64001L14.2065 8.67776L21.3213 12.7879L24.8493 10.7502Z" fill="white"/>
<path d="M17.9355 0L0.867676 9.85258V29.5612L17.9355 39.4138L35.0034 29.5612V9.85258L17.9355 0ZM16.4523 35.8061L12.6852 33.6298L6.86309 22.8969V30.2682L3.0683 28.0779V12.8087L6.82497 14.9781L12.6575 25.8184V18.3467L16.4523 20.5369V35.8061ZM10.7445 10.6774L8.00672 12.2577L4.55503 10.265L17.7484 2.64769L31.1289 10.3724L20.6733 16.4094L10.7445 10.6774ZM32.6191 28.1854L19.4223 35.8027V20.5681L19.4396 20.5577L23.2171 18.3779V29.6132L32.6157 24.1861V28.1854H32.6191Z" fill="white"/>
<path d="M48.9394 30.2884C48.8633 29.7641 48.4645 29.4415 47.9089 29.4415C47.1695 29.4415 46.6811 30.0105 46.6811 31.0053C46.6811 32 47.174 32.5691 47.8999 32.5691C48.4376 32.5691 48.8409 32.2733 48.935 31.7625H49.9566C49.849 32.6497 49.1052 33.4607 47.882 33.4607C46.6587 33.4607 45.655 32.5646 45.655 31.0053C45.655 29.446 46.6184 28.5498 47.882 28.5498C48.9887 28.5498 49.8266 29.1861 49.9566 30.2884H48.935H48.9394Z" fill="white"/>
<path d="M54.0297 33.4607C52.7572 33.4607 51.7893 32.5601 51.7893 31.0053C51.7893 29.4504 52.7527 28.5498 54.0297 28.5498C55.3067 28.5498 56.2701 29.4415 56.2701 31.0053C56.2701 32.5691 55.2978 33.4607 54.0297 33.4607ZM54.0297 29.446C53.2949 29.446 52.8154 29.9926 52.8154 31.0098C52.8154 32.0269 53.2949 32.5736 54.0297 32.5736C54.7645 32.5736 55.244 32.0269 55.244 31.0098C55.244 29.9926 54.7645 29.446 54.0297 29.446Z" fill="white"/>
<path d="M62.2071 33.3981H61.3334L59.2543 30.387H59.2185V33.3981H58.2058V28.6171H59.093L61.1586 31.6237H61.199V28.6171H62.2071V33.3981Z" fill="white"/>
<path d="M66.0068 29.3967C65.5139 29.3967 65.2406 29.6252 65.2406 29.9299C65.2316 30.2749 65.5811 30.4273 65.9979 30.5214L66.428 30.6244C67.257 30.8126 67.8574 31.2338 67.8619 32.0314C67.8619 32.9052 67.1718 33.4653 66.0068 33.4653C64.8418 33.4653 64.107 32.932 64.0801 31.897H65.0569C65.0883 32.3764 65.4691 32.6184 65.9934 32.6184C66.5176 32.6184 66.8402 32.3809 66.8402 32.0314C66.8402 31.7088 66.549 31.5609 66.0292 31.4355L65.5094 31.3055C64.7029 31.1128 64.2055 30.7096 64.2055 30.0016C64.2011 29.1323 64.9673 28.5543 66.0158 28.5543C67.0643 28.5543 67.7812 29.1413 67.7946 29.9927H66.8268C66.7909 29.6163 66.4952 29.3967 66.0113 29.3967H66.0068Z" fill="white"/>
<path d="M69.5421 28.6171H73.4672V29.4505H72.002V33.3981H71.0028V29.4505H69.5376V28.6171H69.5421Z" fill="white"/>
<path d="M75.3043 28.6171H77.1907C78.275 28.6171 78.9024 29.2309 78.9024 30.1809C78.9024 30.8351 78.6021 31.31 78.0555 31.543L79.0726 33.4025H77.9569L77.0518 31.7088H76.3125V33.4025H75.2998V28.6215L75.3043 28.6171ZM77.0025 30.8888C77.5805 30.8888 77.8628 30.6513 77.8628 30.1764C77.8628 29.7014 77.5805 29.4415 76.998 29.4415H76.3169V30.8888H77.0025Z" fill="white"/>
<path d="M84.7723 28.6171V31.7223C84.7723 32.7663 83.9792 33.4653 82.7918 33.4653C81.6044 33.4653 80.8113 32.7663 80.8113 31.7223V28.6171H81.8239V31.6371C81.8239 32.1838 82.2093 32.5781 82.7963 32.5781C83.3832 32.5781 83.7686 32.1838 83.7686 31.6371V28.6171H84.7813H84.7723Z" fill="white"/>
<path d="M89.988 30.2884C89.9119 29.7641 89.5131 29.4415 88.9574 29.4415C88.2181 29.4415 87.7297 30.0105 87.7297 31.0053C87.7297 32 88.2226 32.5691 88.9485 32.5691C89.4862 32.5691 89.8895 32.2733 89.9836 31.7625H91.0052C90.8976 32.6497 90.1538 33.4607 88.9306 33.4607C87.7073 33.4607 86.7036 32.5646 86.7036 31.0053C86.7036 29.446 87.667 28.5498 88.9306 28.5498C90.0373 28.5498 90.8752 29.1861 91.0052 30.2884H89.9836H89.988Z" fill="white"/>
<path d="M92.7437 28.6171H96.6689V29.4505H95.2037V33.3981H94.2045V29.4505H92.7393V28.6171H92.7437Z" fill="white"/>
<path d="M99.5185 33.3981H98.5059V28.6171H99.5185V33.3981Z" fill="white"/>
<path d="M103.695 33.4607C102.422 33.4607 101.454 32.5601 101.454 31.0053C101.454 29.4504 102.418 28.5498 103.695 28.5498C104.972 28.5498 105.935 29.4415 105.935 31.0053C105.935 32.5691 104.963 33.4607 103.695 33.4607ZM103.695 29.446C102.96 29.446 102.48 29.9926 102.48 31.0098C102.48 32.0269 102.96 32.5736 103.695 32.5736C104.43 32.5736 104.909 32.0269 104.909 31.0098C104.909 29.9926 104.43 29.446 103.695 29.446Z" fill="white"/>
<path d="M111.868 33.3981H110.994L108.915 30.387H108.879V33.3981H107.866V28.6171H108.754L110.819 31.6237H110.86V28.6171H111.868V33.3981Z" fill="white"/>
</svg>
