<svg width="181" height="53" viewBox="0 0 181 53" fill="none" xmlns="http://www.w3.org/2000/svg">
<g clip-path="url(#clip0_1003_826)">
<g clip-path="url(#clip1_1003_826)">
<path d="M1.63519 22.1017V4.9502L16.6693 13.2084V30.36L1.63519 22.1017Z" stroke="white" stroke-width="0.861244"/>
<path d="M16.8086 47.8273L1.6424 38.9474L16.6198 29.7412L31.7859 38.6212L16.8086 47.8273Z" stroke="white" stroke-width="0.861244"/>
<path d="M31.3857 38.9364V21.7848L46.4198 30.043V47.1946L31.3857 38.9364Z" stroke="white" stroke-width="0.861244"/>
<path d="M31.4457 21.7826L16.592 13.2069L31.2608 4.31604L46.1145 12.8919L31.4457 21.7826Z" stroke="white" stroke-width="0.861244"/>
<path d="M161.051 41.8706V25.4338C161.051 24.0127 160.845 22.8759 160.435 22.0233C160.056 21.139 159.156 20.6969 157.735 20.6969H156.93V19.6075H161.287C162.455 19.6075 163.34 19.7653 163.94 20.0812C164.571 20.397 165.03 20.8548 165.314 21.4548C165.945 20.918 166.798 20.397 167.872 19.8917C168.977 19.3864 170.303 19.1338 171.851 19.1338C173.366 19.1338 174.74 19.3864 175.972 19.8917C177.234 20.397 178.245 21.2654 179.003 22.4969C179.761 23.7285 180.14 25.4654 180.14 27.7075V41.8706H175.403V27.7075C175.403 26.1286 175.166 24.8811 174.693 23.9654C174.219 23.018 173.603 22.3391 172.845 21.9285C172.087 21.518 171.266 21.3127 170.382 21.3127C169.435 21.3127 168.566 21.5338 167.777 21.9759C167.019 22.418 166.371 22.9233 165.835 23.4917V41.8706H161.051Z" fill="white"/>
<path d="M144.323 42.3443C142.081 42.3443 140.154 41.8233 138.544 40.7812C136.965 39.7391 135.749 38.3338 134.896 36.5654C134.076 34.797 133.665 32.8549 133.665 30.7391C133.665 28.5917 134.076 26.6496 134.896 24.9127C135.749 23.1443 136.965 21.7391 138.544 20.6969C140.154 19.6548 142.081 19.1338 144.323 19.1338C146.565 19.1338 148.476 19.6548 150.054 20.6969C151.665 21.7391 152.881 23.1443 153.702 24.9127C154.554 26.6496 154.981 28.5917 154.981 30.7391C154.981 32.8549 154.554 34.797 153.702 36.5654C152.881 38.3338 151.665 39.7391 150.054 40.7812C148.476 41.8233 146.565 42.3443 144.323 42.3443ZM144.323 40.4022C145.491 40.4022 146.502 39.9759 147.354 39.1233C148.207 38.239 148.855 37.0707 149.296 35.618C149.77 34.1653 150.007 32.5391 150.007 30.7391C150.007 28.9074 149.77 27.2812 149.296 25.8601C148.855 24.4074 148.207 23.2548 147.354 22.4022C146.502 21.518 145.491 21.0759 144.323 21.0759C143.155 21.0759 142.144 21.518 141.291 22.4022C140.438 23.2548 139.775 24.4074 139.302 25.8601C138.86 27.2812 138.638 28.9074 138.638 30.7391C138.638 32.5391 138.86 34.1653 139.302 35.618C139.775 37.0707 140.438 38.239 141.291 39.1233C142.144 39.9759 143.155 40.4022 144.323 40.4022Z" fill="white"/>
<path d="M123.766 41.8707V25.4339C123.766 24.0128 123.561 22.876 123.151 22.0234C122.772 21.1391 121.872 20.6971 120.451 20.6971H119.645V19.6076H124.24C125.345 19.6076 126.198 19.7654 126.798 20.0813C127.429 20.397 127.871 20.9813 128.124 21.8339C128.377 22.6549 128.503 23.8549 128.503 25.4339V41.8707H123.766ZM125.898 16.8602C125.045 16.8602 124.35 16.5444 123.814 15.9128C123.276 15.2497 123.009 14.4918 123.009 13.6392C123.009 12.9444 123.214 12.4076 123.624 12.0286C124.066 11.6181 124.619 11.4128 125.282 11.4128C126.135 11.4128 126.829 11.7286 127.366 12.3602C127.903 12.9918 128.172 13.7339 128.172 14.5865C128.172 15.2812 127.95 15.8339 127.509 16.2444C127.098 16.6549 126.561 16.8602 125.898 16.8602Z" fill="white"/>
<path d="M104.471 41.8706V25.4338C104.471 24.0127 104.266 22.8759 103.855 22.0233C103.476 21.139 102.576 20.6969 101.155 20.6969H100.682V19.6075H104.708C105.877 19.6075 106.76 19.7812 107.361 20.1285C107.992 20.4443 108.45 20.9496 108.734 21.6443C109.271 21.1075 110.045 20.5548 111.055 19.9864C112.097 19.418 113.297 19.1338 114.655 19.1338C115.192 19.1338 115.729 19.1969 116.266 19.3233C116.834 19.4496 117.292 19.6391 117.64 19.8917C118.05 20.1759 118.382 20.5232 118.634 20.9338C118.887 21.3127 119.108 21.6759 119.297 22.0233L117.261 23.5864C116.914 23.1127 116.423 22.7338 115.792 22.4496C115.161 22.1654 114.434 22.0233 113.613 22.0233C112.634 22.0233 111.766 22.2285 111.008 22.6391C110.25 23.018 109.634 23.5233 109.161 24.1548C109.192 24.4391 109.208 24.739 109.208 25.0548C109.208 25.3707 109.208 25.6233 109.208 25.8127V41.8706H104.471Z" fill="white"/>
<path d="M83.7332 42.8179C80.7017 42.8179 78.0648 42.0916 75.8227 40.639C73.5806 39.1548 71.8438 37.1653 70.6122 34.6706C69.4122 32.1443 68.8122 29.3337 68.8122 26.239C68.8122 23.1443 69.4122 20.3495 70.6122 17.8548C71.8438 15.3285 73.5806 13.339 75.8227 11.8864C78.0648 10.4022 80.7017 9.66003 83.7332 9.66003C86.7648 9.66003 89.3856 10.4022 91.5964 11.8864C93.8382 13.339 95.5754 15.3285 96.8069 17.8548C98.0385 20.3495 98.6543 23.1443 98.6543 26.239C98.6543 29.3337 98.0385 32.1443 96.8069 34.6706C95.5754 37.1653 93.8382 39.1548 91.5964 40.639C89.3856 42.0916 86.7648 42.8179 83.7332 42.8179ZM83.7332 40.8758C85.7858 40.8758 87.5227 40.2916 88.9438 39.1232C90.3967 37.9232 91.5017 36.2337 92.2596 34.0548C93.0493 31.8758 93.4438 29.2706 93.4438 26.239C93.4438 23.2074 93.0493 20.6021 92.2596 18.4232C91.5017 16.2442 90.3967 14.5706 88.9438 13.4021C87.5227 12.2022 85.7858 11.6021 83.7332 11.6021C81.7122 11.6021 79.9754 12.2022 78.5227 13.4021C77.0701 14.5706 75.9491 16.2442 75.1596 18.4232C74.4017 20.6021 74.0227 23.2074 74.0227 26.239C74.0227 29.2706 74.4017 31.8758 75.1596 34.0548C75.9491 36.2337 77.0701 37.9232 78.5227 39.1232C79.9754 40.2916 81.7122 40.8758 83.7332 40.8758Z" fill="white"/>
</g>
</g>
<defs>
<clipPath id="clip0_1003_826">
<rect width="180" height="52.53" fill="white" transform="translate(0.773926 0.189331)"/>
</clipPath>
<clipPath id="clip1_1003_826">
<rect width="180" height="52.5359" fill="white" transform="translate(0.773926 0.186401)"/>
</clipPath>
</defs>
</svg>
