<svg width="464" height="518" viewBox="0 0 464 518" fill="none" xmlns="http://www.w3.org/2000/svg">
<rect width="463" height="517" transform="translate(0.735352 0.540527)" fill="white"/>
<path d="M300.381 171.045L230.47 130.707L195.804 150.706L265.715 191.044L300.381 171.045Z" fill="#F8F8F8"/>
<path d="M232.446 65.5405L64.7354 162.235V355.659L232.446 452.354L400.157 355.659V162.235L232.446 65.5405ZM217.872 416.948L180.856 395.589L123.647 290.255V362.598L86.359 341.102V191.247L123.272 212.539L180.584 318.927V245.598L217.872 267.093V416.948ZM161.786 170.33L134.884 185.839L100.968 166.283L230.607 91.5254L296.347 129.431L362.086 167.337L259.348 226.585L161.786 170.33ZM376.729 342.157L247.055 416.914V267.399L247.225 267.297L284.343 245.904V356.169L376.695 302.907V342.157H376.729Z" fill="#F8F8F8"/>
</svg>
